<svg width="43" height="26" viewBox="0 0 43 26" fill="none" xmlns="http://www.w3.org/2000/svg">
<rect width="43" height="26" rx="2" fill="#006FCF"/>
<rect x="0.5" y="0.5" width="42" height="25" rx="1.5" stroke="black" stroke-opacity="0.07"/>
<path d="M37.5 2C38.6 2 39.5 2.9 39.5 4V22C39.5 23.1 38.6 24 37.5 24H5.5C4.4 24 3.5 23.1 3.5 22V4C3.5 2.9 4.4 2 5.5 2H37.5Z" fill="#006FCF"/>
<path d="M11.471 11.268L12.245 13.144H10.703L11.471 11.268ZM27.546 11.346H24.569V12.173H27.498V13.412H24.575V14.334H27.552V15.073L29.629 12.828L27.552 10.488L27.546 11.346ZM13.483 9.006H17.478L18.365 10.941L19.187 9H29.557L30.635 10.19L31.75 9H36.513L32.994 12.852L36.477 16.68H31.643L30.565 15.49L29.44 16.68H12.53L12.036 15.49H10.906L10.411 16.68H6.5L9.786 9H13.216L13.483 9.006ZM22.146 10.084H19.907L18.407 13.62L16.782 10.084H14.56V14.894L12.5 10.084H10.507L8.125 15.596H9.68L10.174 14.406H12.77L13.264 15.596H15.984V11.661L17.735 15.602H18.925L20.665 11.673V15.603H22.123L22.147 10.083L22.146 10.084ZM31.486 12.852L34.017 10.084H32.195L30.594 11.81L29.046 10.084H23.152V15.602H28.962L30.576 13.864L32.124 15.602H33.999L31.486 12.852Z" fill="white"/>
</svg>
