<svg width="43" height="26" viewBox="0 0 43 26" fill="none" xmlns="http://www.w3.org/2000/svg">
<rect x="0.5" y="0.5" width="42" height="25" rx="1.5" fill="white"/>
<rect x="0.5" y="0.5" width="42" height="25" rx="1.5" stroke="#353535"/>
<path d="M11.9871 8.5475C12.3291 8.13096 12.561 7.57153 12.4999 7C11.9995 7.02421 11.3891 7.3216 11.0354 7.73862C10.718 8.09559 10.4371 8.67828 10.5102 9.22583C11.0719 9.2733 11.6332 8.95241 11.9871 8.5475Z" fill="black"/>
<path d="M12.4936 9.33288C11.6775 9.28541 10.9842 9.78384 10.5947 9.78384C10.2049 9.78384 9.60835 9.35661 8.96305 9.36824C8.12335 9.38011 7.34431 9.84294 6.91801 10.5787C6.04153 12.0503 6.68659 14.2338 7.5392 15.4324C7.95307 16.0258 8.45197 16.6785 9.10921 16.655C9.73039 16.6313 9.97375 16.2634 10.7284 16.2634C11.4829 16.2634 11.7021 16.655 12.3596 16.6431C13.0412 16.6313 13.4675 16.0498 13.8814 15.4564C14.3564 14.78 14.5505 14.1273 14.5627 14.0917C14.5505 14.0798 13.2482 13.593 13.2361 12.1333C13.2239 10.911 14.2587 10.3295 14.3074 10.2937C13.723 9.45155 12.81 9.35661 12.4933 9.33288" fill="black"/>
<path d="M20.6264 7.67881C22.3994 7.67881 23.6342 8.86958 23.6342 10.6032C23.6342 12.3429 22.374 13.5398 20.5821 13.5398H18.6192V16.5817H17.2009V7.67881H20.6264ZM18.6192 12.3799H20.2464C21.4815 12.3799 22.184 11.7322 22.184 10.6093C22.184 9.48668 21.4812 8.84489 20.2528 8.84489H18.6192V12.3799Z" fill="black"/>
<path d="M23.9859 14.7368C23.9859 13.5954 24.8787 12.9415 26.525 12.8428L28.2916 12.7379V12.2442C28.2916 11.5226 27.8042 11.1277 26.9367 11.1277C26.221 11.1277 25.7016 11.4854 25.5944 12.0344H24.3151C24.3533 10.8809 25.4675 10.0418 26.9747 10.0418C28.5956 10.0418 29.6531 10.8685 29.6531 12.1518V16.5814H28.3425V15.5141H28.3109C27.9372 16.2112 27.1138 16.6491 26.221 16.6491C24.9041 16.6491 23.9859 15.8844 23.9859 14.7368ZM28.2916 14.1631V13.6633L26.715 13.762C25.8283 13.8175 25.3664 14.1382 25.3664 14.6995C25.3664 15.2426 25.8476 15.5943 26.601 15.5943C27.5632 15.5943 28.2916 14.9957 28.2916 14.1631Z" fill="black"/>
<path d="M30.8582 18.9627V17.8956C30.9469 17.9077 31.162 17.9201 31.276 17.9201C31.9028 17.9201 32.2574 17.6614 32.4728 16.9947L32.5995 16.6L30.1995 10.1221H31.6811L33.3529 15.3783H33.3846L35.0562 10.1221H36.5L34.0114 16.9268C33.4413 18.4878 32.7892 19 31.409 19C31.3013 19 30.953 18.9877 30.8582 18.9627Z" fill="black"/>
</svg>
