<svg width="43" height="26" viewBox="0 0 43 26" fill="none" xmlns="http://www.w3.org/2000/svg">
<rect x="0.5" y="0.5" width="42" height="25" rx="1.5" fill="#B2FCE4"/>
<rect x="0.5" y="0.5" width="42" height="25" rx="1.5" stroke="#353535"/>
<g clip-path="url(#clip0_6_19729)">
<path d="M37.5 1H5.5C3.8 1 2.5 2.3 2.5 4V22C2.5 23.7 3.9 25 5.5 25H37.5C39.2 25 40.5 23.7 40.5 22V4C40.5 2.3 39.1 1 37.5 1Z" fill="#B2FCE4"/>
<path d="M29.8996 7.80001L27.1996 6.20001L24.4996 4.60001C22.6996 3.60001 20.3996 4.90001 20.3996 7.00001V7.40001C20.3996 7.60001 20.4996 7.80001 20.6996 7.90001L21.9996 8.60001C22.3996 8.80001 22.7996 8.50001 22.7996 8.10001V7.30001C22.7996 6.90001 23.1996 6.60001 23.5996 6.80001L26.0996 8.20001L28.4996 9.70001C28.8996 9.90001 28.8996 10.4 28.4996 10.6L25.9996 12L23.4996 13.6C23.0996 13.8 22.6996 13.5 22.6996 13.1V12.7C22.6996 10.6 20.3996 9.30001 18.5996 10.3L15.8996 11.9L13.1996 13.5C11.3996 14.5 11.3996 17.2 13.1996 18.2L15.8996 19.8L18.5996 21.4C20.3996 22.4 22.6996 21.1 22.6996 19V18.6C22.6996 18.4 22.5996 18.2 22.3996 18.1L21.0996 17.4C20.6996 17.2 20.2996 17.5 20.2996 17.9V18.7C20.2996 19.1 19.8996 19.4 19.4996 19.2L16.9996 17.8L14.4996 16.3C14.0996 16.1 14.0996 15.6 14.4996 15.4L16.9996 14L19.4996 12.6C19.8996 12.4 20.2996 12.7 20.2996 13.1V13.5C20.2996 15.6 22.5996 16.9 24.3996 15.9L27.0996 14.3L29.7996 12.7C31.6996 11.5 31.6996 8.90001 29.8996 7.80001Z" fill="black"/>
</g>
<defs>
<clipPath id="clip0_6_19729">
<rect width="38" height="24" fill="white" transform="translate(2.5 1)"/>
</clipPath>
</defs>
</svg>
