<svg width="43" height="26" viewBox="0 0 43 26" fill="none" xmlns="http://www.w3.org/2000/svg">
<rect x="0.5" y="0.5" width="42" height="25" rx="1.5" fill="white"/>
<rect x="0.5" y="0.5" width="42" height="25" rx="1.5" stroke="#353535"/>
<path d="M17.5 20C21.366 20 24.5 16.866 24.5 13C24.5 9.13401 21.366 6 17.5 6C13.634 6 10.5 9.13401 10.5 13C10.5 16.866 13.634 20 17.5 20Z" fill="#EB001B"/>
<path d="M25.5 20C29.366 20 32.5 16.866 32.5 13C32.5 9.13401 29.366 6 25.5 6C21.634 6 18.5 9.13401 18.5 13C18.5 16.866 21.634 20 25.5 20Z" fill="#F79E1B"/>
<path d="M24.5 13C24.5 10.6 23.3 8.5 21.5 7.3C19.7 8.6 18.5 10.7 18.5 13C18.5 15.3 19.7 17.5 21.5 18.7C23.3 17.5 24.5 15.4 24.5 13Z" fill="#FF5F00"/>
</svg>
