<svg width="43" height="26" viewBox="0 0 43 26" fill="none" xmlns="http://www.w3.org/2000/svg">
<rect x="0.5" y="0.5" width="42" height="25" rx="1.5" fill="white"/>
<rect x="0.5" y="0.5" width="42" height="25" rx="1.5" stroke="#353535"/>
<path d="M25.9508 9.74995C26.1508 8.74995 25.9508 8.04995 25.3508 7.44995C24.7508 6.74995 23.6508 6.44995 22.2508 6.44995H18.1508C17.8508 6.44995 17.6508 6.64995 17.5508 6.94995L16.0508 17.05C16.0508 17.25 16.1508 17.45 16.3508 17.45H19.0508L19.4508 14.05L21.2508 11.85L25.9508 9.74995Z" fill="#003087"/>
<path d="M25.9508 9.74995L25.7508 9.94995C25.2508 12.75 23.5508 13.75 21.1508 13.75H20.0508C19.7508 13.75 19.5508 13.95 19.4508 14.25L18.8508 18.15L18.6508 19.15C18.6508 19.35 18.7508 19.55 18.9508 19.55H21.0508C21.3508 19.55 21.5508 19.35 21.5508 19.15V19.05L21.9508 16.65V16.55C21.9508 16.35 22.2508 16.15 22.4508 16.15H22.7508C24.8508 16.15 26.4508 15.35 26.8508 12.95C27.0508 11.95 26.9508 11.15 26.4508 10.55C26.3508 10.05 26.1508 9.84995 25.9508 9.74995Z" fill="#3086C8"/>
<path d="M25.3508 9.54995C25.2508 9.44995 25.1508 9.44995 25.0508 9.44995C24.9508 9.44995 24.8508 9.44995 24.7508 9.34995C24.4508 9.24995 24.0508 9.24995 23.6508 9.24995H20.6508C20.5508 9.24995 20.4508 9.24995 20.4508 9.34995C20.2508 9.44995 20.1508 9.54995 20.1508 9.74995L19.4508 14.15V14.25C19.4508 13.95 19.7508 13.75 20.0508 13.75H21.3508C23.8508 13.75 25.4508 12.75 25.9508 9.94995V9.74995C25.8508 9.64995 25.6508 9.54995 25.4508 9.54995H25.3508Z" fill="#012169"/>
</svg>
