<svg width="43" height="26" viewBox="0 0 43 26" fill="none" xmlns="http://www.w3.org/2000/svg">
<rect x="0.5" y="0.5" width="42" height="25" rx="1.5" fill="white"/>
<rect x="0.5" y="0.5" width="42" height="25" rx="1.5" stroke="#353535"/>
<path d="M20.0289 0V26H11.8816C10.4105 26 9.50526 24.9167 9.84474 23.5083L14.8237 2.49167C15.1632 1.08333 16.9737 0 18.4447 0H20.0289ZM34.2868 0C32.8158 0 31.0053 1.08333 30.6658 2.49167L25.5737 23.5083C25.2342 24.9167 26.1395 26 27.6105 26H22.0658V0H34.2868Z" fill="#005B9A"/>
<path d="M18.4447 0C16.9737 0 15.1632 1.19167 14.8237 2.49167L9.84474 23.5083C9.50526 24.9167 10.4105 26 11.8816 26H1.81052C0.905261 26 0.113156 25.35 0.113156 24.4833V1.73333C0.113156 0.866667 0.905261 0 1.81052 0H18.4447Z" fill="#E9292D"/>
<path d="M34.2868 0C32.8158 0 31.0053 1.19167 30.6658 2.49167L25.6868 23.5083C25.3474 24.9167 26.2526 26 27.7237 26H11.3158H11.8816C10.4105 26 9.50526 24.9167 9.84474 23.5083L14.8237 2.49167C15.1632 1.08333 16.9737 0 18.4447 0H34.2868Z" fill="#0E73B9"/>
<path d="M43 1.73333V24.4833C43 25.35 42.3211 26 41.3026 26H27.6105C26.1395 26 25.2342 24.8083 25.5737 23.5083L30.6658 2.49167C31.0053 1.08333 32.8158 0 34.2868 0H41.3026C42.3211 0 43 0.758334 43 1.73333Z" fill="#059DA4"/>
<path d="M16.8356 14.7821H16.9941C17.1525 14.7821 17.3109 14.7063 17.3109 14.6304L17.7862 13.9479H19.1327L18.8951 14.3271H20.4793L20.2417 15.0096H18.3406C18.103 15.3129 17.8654 15.4646 17.5485 15.4646H16.598L16.8356 14.7821ZM16.598 15.7679H20.0041L19.7664 16.5263H18.4198L18.1822 17.2846H19.5288L19.2912 18.0429H17.9446L17.6277 19.1804C17.5485 19.3321 17.6277 19.4838 17.9446 19.4079H19.0535L18.8159 20.1663H16.6772C16.2812 20.1663 16.1227 19.9388 16.2812 19.4838L16.6772 18.0429H15.8059L16.0435 17.2846H16.9148L17.1525 16.5263H16.3604L16.598 15.7679ZM22.0635 13.8721V14.3271C22.0635 14.3271 22.6972 13.8721 23.3309 13.8721H25.5488L24.6775 16.7537C24.5983 17.0571 24.2814 17.2846 23.8062 17.2846H21.2714L20.7169 19.3321C20.7169 19.4079 20.7169 19.4838 20.8754 19.4838H21.3506L21.1922 20.0904H19.9248C19.4496 20.0904 19.2912 19.9388 19.3704 19.7113L21.0338 13.8721H22.0635ZM23.9646 14.7063H21.9843L21.7467 15.4646C21.7467 15.4646 22.0635 15.2371 22.618 15.2371H23.8062L23.9646 14.7063ZM23.2517 16.5263C23.4101 16.5263 23.4893 16.5263 23.4893 16.3746L23.6477 15.9954H21.6675L21.5091 16.6021L23.2517 16.5263ZM21.9051 17.4363H23.0141V17.8913H23.3309C23.4893 17.8913 23.5685 17.8154 23.5685 17.7396L23.6477 17.4363H24.5983L24.4398 17.9671C24.3606 18.3463 24.0438 18.4979 23.5685 18.5738H22.9348V19.4079C22.9348 19.5596 23.0141 19.6354 23.3309 19.6354H23.8854L23.7269 20.2421H22.3804C21.9843 20.2421 21.8259 20.0904 21.8259 19.7113L21.9051 17.4363ZM26.6577 14.7821L26.8954 13.8721H28.2419L28.1627 14.1754C28.1627 14.1754 28.7964 13.8721 29.3509 13.8721H31.0143L30.7767 14.7821H30.5391L29.2717 18.9529H29.5093L29.2717 19.7871H29.0341L28.9548 20.1663H27.6083L27.6875 19.7871H25.2319L25.4696 18.9529H25.7072L26.9746 14.7821H26.6577ZM28.0835 14.7821L27.7667 15.9196C27.7667 15.9196 28.3212 15.6921 28.7964 15.6163C28.8756 15.2371 29.0341 14.7821 29.0341 14.7821H28.0835ZM27.5291 16.4504L27.2122 17.6638C27.2122 17.6638 27.8459 17.3604 28.3212 17.3604C28.4796 16.9054 28.5588 16.5263 28.5588 16.5263L27.5291 16.4504ZM27.7667 18.9529L28.0043 18.1187H27.0538L26.8162 18.9529H27.7667ZM31.0143 13.8721H32.2817L32.3609 14.3271C32.3609 14.4029 32.4401 14.4788 32.5985 14.4788H32.8362L32.5985 15.2371H31.7272C31.4104 15.2371 31.1727 15.1613 31.1727 14.8579L31.0143 13.8721ZM30.6183 15.4646H34.658L34.4204 16.2987H33.0738L32.8362 17.0571H34.1035L33.8659 17.8913H32.4401L32.1233 18.3463H32.8362L32.9946 19.2563C32.9946 19.3321 33.0738 19.4079 33.2322 19.4079H33.4698L33.2322 20.1663H32.4401C32.0441 20.1663 31.8064 20.0904 31.8064 19.7871L31.648 18.9529L31.0143 19.8629C30.8559 20.0904 30.6183 20.2421 30.3014 20.2421H29.1133L29.3509 19.4838H29.7469C29.9054 19.4838 29.9846 19.4079 30.143 19.2563L31.0935 17.8913H29.9054L30.143 17.0571H31.4896L31.7272 16.2987H30.3806L30.6183 15.4646ZM8.2809 10.0046C8.12247 10.7629 7.80563 11.2938 7.25116 11.6729C6.69669 12.0521 5.98379 12.2796 5.11247 12.2796C4.32037 12.2796 3.68669 12.0521 3.36984 11.6729C3.13221 11.3696 2.97379 11.0662 2.97379 10.6112C2.97379 10.4596 2.97379 10.2321 3.053 10.0046L4.00352 5.75792H5.35011L4.47879 10.0046V10.3079C4.47879 10.5354 4.558 10.6871 4.63721 10.8388C4.79563 11.0663 5.03326 11.1421 5.42932 11.1421C5.82537 11.1421 6.22142 11.0663 6.45905 10.8388C6.69668 10.6113 6.93432 10.3838 7.01353 10.0046L7.88484 5.75792H9.23142L8.2809 10.0046ZM9.54826 8.33625H10.4988L10.4196 8.86709L10.578 8.71542C10.8948 8.41208 11.2909 8.26042 11.7662 8.26042C12.1622 8.26042 12.4791 8.41208 12.6375 8.63958C12.7959 8.86708 12.8751 9.17041 12.7959 9.62541L12.2414 12.2037H11.2117L11.6869 9.85292C11.7662 9.54959 11.7662 9.32208 11.6869 9.24625C11.6077 9.09458 11.4493 9.09458 11.2909 9.09458C11.0533 9.09458 10.8156 9.17042 10.6572 9.32208C10.4988 9.47375 10.3404 9.70125 10.3404 10.0046L9.86511 12.2037H8.83537L9.54826 8.33625ZM20.6377 8.33625H21.5883L21.5091 8.86709L21.6675 8.71542C21.9843 8.41208 22.3804 8.26042 22.8556 8.26042C23.2517 8.26042 23.5685 8.41208 23.7269 8.63958C23.8854 8.86708 23.9646 9.17041 23.8854 9.62541L23.3309 12.2037H22.3012L22.7764 9.77709C22.8556 9.54959 22.7764 9.32208 22.6972 9.24625C22.618 9.09458 22.4596 9.09458 22.3012 9.09458C22.0635 9.09458 21.8259 9.17042 21.6675 9.32208C21.5091 9.47375 21.3506 9.70125 21.3506 10.0046L20.8754 12.2037H19.8456L20.6377 8.33625ZM14.0633 8.33625H15.1722L14.3009 12.1279H13.1919L14.0633 8.33625ZM14.4593 6.89542H15.5683L15.3306 7.80542H14.2217L14.4593 6.89542ZM16.0435 11.8246C15.8059 11.5971 15.6475 11.2179 15.6475 10.7629V10.5354C15.6475 10.4596 15.6475 10.3079 15.7267 10.2321C15.8851 9.62542 16.1227 9.09459 16.5188 8.79125C16.9148 8.41209 17.4693 8.26042 18.0238 8.26042C18.4991 8.26042 18.8951 8.41208 19.2119 8.63958C19.4496 8.86708 19.608 9.24625 19.608 9.70125V9.92875C19.608 10.0046 19.608 10.1562 19.5288 10.2321C19.3704 10.8387 19.1327 11.2938 18.7367 11.6729C18.3406 12.0521 17.7862 12.2037 17.2317 12.2037C16.8356 12.2037 16.4396 12.0521 16.0435 11.8246ZM18.1822 11.0663C18.3406 10.8388 18.4991 10.5354 18.5783 10.1562V9.77709C18.5783 9.54959 18.4991 9.39792 18.4198 9.24625C18.3502 9.17212 18.2645 9.11338 18.1687 9.07409C18.073 9.03481 17.9695 9.01593 17.8654 9.01875C17.5485 9.01875 17.3109 9.09458 17.1525 9.32208C16.9941 9.54958 16.8356 9.85292 16.7564 10.2321V10.5354C16.7564 10.7629 16.8356 10.9146 16.9148 11.0663C17.0733 11.2179 17.2317 11.2937 17.4693 11.2937C17.7862 11.3696 17.9446 11.2938 18.1822 11.0663ZM25.5488 5.98542H28.4004C28.9548 5.98542 29.3509 6.13708 29.6677 6.36458C29.9846 6.59208 30.0638 6.97125 30.0638 7.35042V7.65375C30.0638 7.72958 30.0638 7.88125 29.9846 7.95709C29.9054 8.48792 29.5885 9.01875 29.1925 9.32208C28.7172 9.70125 28.2419 9.85292 27.6083 9.85292H26.0241L25.5488 12.0521H24.2022L25.5488 5.98542ZM26.1825 8.79125H27.4498C27.7667 8.79125 28.0043 8.71542 28.2419 8.56375C28.4004 8.41208 28.5588 8.18459 28.638 7.88125V7.57792C28.638 7.35042 28.5588 7.19875 28.4004 7.12292C28.2419 7.04708 28.0043 6.97125 27.6083 6.97125H26.5785L26.1825 8.79125ZM36.0046 12.8104C35.6085 13.6446 35.2125 14.1754 34.9748 14.4029C34.7372 14.6304 34.2619 15.1612 33.153 15.1612L33.2322 14.4788C34.1827 14.1754 34.658 12.9621 34.9748 12.3554L34.658 8.26042H36.0046L36.0838 10.8388L37.1135 8.33625H38.3017L36.0046 12.8104ZM32.6777 8.63958L32.2025 8.94292C31.7272 8.56375 31.2519 8.33625 30.4598 8.71542C29.3509 9.24625 28.3212 13.1896 31.4896 11.9004L31.648 12.1279H32.9154L33.7075 8.56375L32.6777 8.63958ZM32.0441 10.6112C31.8064 11.2179 31.4104 11.5212 31.0143 11.4454C30.6975 11.2937 30.6183 10.7629 30.7767 10.1562C31.0143 9.54958 31.4104 9.24625 31.8064 9.32208C32.1233 9.47375 32.2025 10.0046 32.0441 10.6112Z" fill="white"/>
</svg>
