<svg width="43" height="26" viewBox="0 0 43 26" fill="none" xmlns="http://www.w3.org/2000/svg">
<rect x="0.5" y="0.5" width="42" height="25" rx="1.5" fill="white"/>
<rect x="0.5" y="0.5" width="42" height="25" rx="1.5" stroke="#353535"/>
<path d="M31.3 11.1H31C30.6 12.1 30.3 12.6 30 14.1H31.9C31.6 12.6 31.6 11.9 31.3 11.1ZM34.2 17H32.5C32.4 17 32.4 17 32.3 16.9L32.1 16L32 15.8H29.6C29.5 15.8 29.4 15.8 29.4 16L29.1 16.9C29.1 17 29 17 29 17H26.9L27.1 16.5L30 9.7C30 9.2 30.3 9 30.8 9H32.3C32.4 9 32.5 9 32.5 9.2L33.9 15.7C34 16.1 34.1 16.4 34.1 16.8C34.2 16.9 34.2 16.9 34.2 17ZM20.8 16.7L21.2 14.9C21.3 14.9 21.4 15 21.4 15C22.1 15.3 22.8 15.5 23.5 15.4C23.7 15.4 24 15.3 24.2 15.2C24.7 15 24.7 14.5 24.3 14.1C24.1 13.9 23.8 13.8 23.5 13.6C23.1 13.4 22.7 13.2 22.4 12.9C21.2 11.9 21.6 10.5 22.3 9.8C22.9 9.4 23.2 9 24 9C25.2 9 26.5 9 27.1 9.2H27.2C27.1 9.8 27 10.3 26.8 10.9C26.3 10.7 25.8 10.5 25.3 10.5C25 10.5 24.7 10.5 24.4 10.6C24.2 10.6 24.1 10.7 24 10.8C23.8 11 23.8 11.3 24 11.5L24.5 11.9C24.9 12.1 25.3 12.3 25.6 12.5C26.1 12.8 26.6 13.3 26.7 13.9C26.9 14.8 26.6 15.6 25.8 16.2C25.3 16.6 25.1 16.8 24.4 16.8C23 16.8 21.9 16.9 21 16.6C20.9 16.8 20.9 16.8 20.8 16.7ZM17.3 17C17.4 16.3 17.4 16.3 17.5 16C18 13.8 18.5 11.5 18.9 9.3C19 9.1 19 9 19.2 9H21C20.8 10.2 20.6 11.1 20.3 12.2C20 13.7 19.7 15.2 19.3 16.7C19.3 16.9 19.2 16.9 19 16.9M8 9.2C8 9.1 8.2 9 8.3 9H11.7C12.2 9 12.6 9.3 12.7 9.8L13.6 14.2C13.6 14.3 13.6 14.3 13.7 14.4C13.7 14.3 13.8 14.3 13.8 14.3L15.9 9.2C15.8 9.1 15.9 9 16 9H18.1C18.1 9.1 18.1 9.1 18 9.2L14.9 16.5C14.8 16.7 14.8 16.8 14.7 16.9C14.6 17 14.4 16.9 14.2 16.9H12.7C12.6 16.9 12.5 16.9 12.5 16.7L10.9 10.5C10.7 10.3 10.4 10 10 9.9C9.4 9.6 8.3 9.4 8.1 9.4L8 9.2Z" fill="#142688"/>
</svg>
