<svg width="24" height="36" viewBox="0 0 24 36" fill="none" xmlns="http://www.w3.org/2000/svg">
<path d="M3.64286 34.9157H20.1429V36H3.64286V34.9157Z" fill="#0B1B29"/>
<path d="M1.28571 13.5542V3.46987H2.89286V12.7952L11.1429 20.7108V22.988L1.28571 13.5542Z" fill="#0B1B29"/>
<path d="M22.7143 13.5542V3.46987H21.1071V12.7952L12.8571 20.7108V22.988L22.7143 13.5542Z" fill="#0B1B29"/>
<path d="M19.7143 3.46987H24L21.8571 0L19.7143 3.46987Z" fill="#0B1B29"/>
<path d="M11.219 35.1325C11.1937 35.0272 11.1429 34.9219 11.1429 34.813C11.1429 30.684 11.1429 26.5585 11.1429 22.4295C11.1429 22.3312 10.5 20.8267 10.5 20.7108C11.0841 20.7108 12.2857 20.7108 12.8571 20.7108C12.8698 20.7916 12.8571 22.2785 12.8571 22.3557C12.8571 26.5023 12.8571 30.6454 12.8571 34.792C12.8571 34.9043 12.7937 35.0167 12.7556 35.1325C12.2349 35.1325 11.727 35.1325 11.219 35.1325Z" fill="#0B1B29"/>
<path d="M21.1071 3.46987H22.7143V5.63854H21.1071V3.46987Z" fill="#0B1B29"/>
<path d="M1.28571 3.46987H2.89286V5.63854H1.28571V3.46987Z" fill="#0B1B29"/>
<path d="M0 3.62478H4.28571L2.14286 0.216867L0 3.62478Z" fill="#0B1B29"/>
</svg>
