<svg width="21" height="42" viewBox="0 0 21 42" fill="none" xmlns="http://www.w3.org/2000/svg">
<path d="M9.27347 38.5895C9.23277 38.3743 9.15137 38.1592 9.15137 37.9368C9.15137 29.5025 9.15137 17.8858 9.15137 9.45145C9.15137 9.25064 9.15137 9.05699 9.15137 8.82031C10.0875 8.82031 10.9829 8.82031 11.8987 8.82031C11.9191 8.98527 11.8987 9.14305 11.8987 9.30084C11.8987 17.771 11.8987 26.2341 11.8987 34.7043C11.8987 34.9338 11.797 38.3528 11.7359 38.5895C10.9015 38.5895 10.0875 38.5895 9.27347 38.5895Z" fill="#B6B6B6"/>
<path d="M0.997558 27.2881H20.2005L20.9487 30.0445H0L0.997558 27.2881Z" fill="#B6B6B6"/>
<path d="M12.51 39.7423C12.51 40.9877 11.5004 41.9973 10.255 41.9973C9.0096 41.9973 8 40.9877 8 39.7423C8 38.4969 9.0096 37.4873 10.255 37.4873C11.5004 37.4873 12.51 38.4969 12.51 39.7423Z" fill="#B6B6B6"/>
<path d="M9.09626 8.82034L8.04883 7.71777H13.0104L11.9629 8.82034H9.09626Z" fill="#B6B6B6"/>
<path d="M8.0492 7.71777L13.0107 7.71777L10.53 -0.000164032L8.0492 7.71777Z" fill="#B6B6B6"/>
</svg>
