<svg width="10" height="13" viewBox="0 0 10 13" fill="none" xmlns="http://www.w3.org/2000/svg">
<path fill-rule="evenodd" clip-rule="evenodd" d="M4.95117 0.972116C4.02291 0.972116 3.13268 1.34086 2.4763 1.99724C1.81992 2.65362 1.45117 3.54386 1.45117 4.47212C1.45117 5.40037 1.81992 6.29061 2.4763 6.94699C3.13268 7.60337 4.02291 7.97212 4.95117 7.97212C5.87943 7.97212 6.76967 7.60337 7.42605 6.94699C8.08242 6.29061 8.45117 5.40037 8.45117 4.47212C8.45117 3.54386 8.08242 2.65362 7.42605 1.99724C6.76967 1.34086 5.87943 0.972116 4.95117 0.972116ZM0.576172 4.47212C0.576183 3.62548 0.821847 2.79703 1.28337 2.08725C1.74489 1.37746 2.40245 0.816841 3.17629 0.47337C3.95012 0.129899 4.807 0.0183368 5.64298 0.152214C6.47897 0.286091 7.25815 0.659656 7.88603 1.2276C8.51391 1.79555 8.96351 2.53347 9.18031 3.35189C9.3971 4.1703 9.37177 5.03403 9.1074 5.83833C8.84302 6.64263 8.35096 7.35295 7.69088 7.88313C7.0308 8.41331 6.23107 8.74058 5.38867 8.82524V10.5971H7.13867C7.2547 10.5971 7.36598 10.6432 7.44803 10.7253C7.53008 10.8073 7.57617 10.9186 7.57617 11.0346C7.57617 11.1506 7.53008 11.2619 7.44803 11.344C7.36598 11.426 7.2547 11.4721 7.13867 11.4721H5.38867V13.6596C5.38867 13.7756 5.34258 13.8869 5.26053 13.969C5.17848 14.051 5.0672 14.0971 4.95117 14.0971C4.83514 14.0971 4.72386 14.051 4.64181 13.969C4.55977 13.8869 4.51367 13.7756 4.51367 13.6596V11.4721H2.76367C2.64764 11.4721 2.53636 11.426 2.45431 11.344C2.37227 11.2619 2.32617 11.1506 2.32617 11.0346C2.32617 10.9186 2.37227 10.8073 2.45431 10.7253C2.53636 10.6432 2.64764 10.5971 2.76367 10.5971H4.51367V8.82524C3.43452 8.71678 2.43413 8.21135 1.70657 7.40699C0.979008 6.60263 0.576158 5.5567 0.576172 4.47212Z" fill="white"/>
</svg>
