<svg width="13" height="13" viewBox="0 0 13 13" fill="none" xmlns="http://www.w3.org/2000/svg">
<path fill-rule="evenodd" clip-rule="evenodd" d="M7.64286 1.84717C7.52682 1.84717 7.41554 1.80107 7.3335 1.71903C7.25145 1.63698 7.20536 1.5257 7.20536 1.40967C7.20536 1.29364 7.25145 1.18236 7.3335 1.10031C7.41554 1.01826 7.52682 0.972168 7.64286 0.972168H12.0179C12.1339 0.972168 12.2452 1.01826 12.3272 1.10031C12.4093 1.18236 12.4554 1.29364 12.4554 1.40967V5.78467C12.4554 5.9007 12.4093 6.01198 12.3272 6.09403C12.2452 6.17607 12.1339 6.22217 12.0179 6.22217C11.9018 6.22217 11.7905 6.17607 11.7085 6.09403C11.6265 6.01198 11.5804 5.9007 11.5804 5.78467V2.46579L7.96748 6.07867C8.67781 6.94771 9.02697 8.05652 8.94274 9.17576C8.85851 10.295 8.34734 11.3391 7.51494 12.092C6.68255 12.845 5.59261 13.2492 4.47055 13.2211C3.34849 13.193 2.28015 12.7347 1.48649 11.941C0.692823 11.1474 0.234551 10.079 0.206451 8.95697C0.178351 7.83492 0.582573 6.74498 1.33552 5.91258C2.08846 5.08019 3.13252 4.56901 4.25176 4.48478C5.37101 4.40055 6.47982 4.74971 7.34886 5.46004L10.9617 1.84717H7.64286ZM4.58036 5.34717C3.6521 5.34717 2.76186 5.71592 2.10548 6.37229C1.44911 7.02867 1.08036 7.91891 1.08036 8.84717C1.08036 9.77543 1.44911 10.6657 2.10548 11.322C2.76186 11.9784 3.6521 12.3472 4.58036 12.3472C5.50862 12.3472 6.39885 11.9784 7.05523 11.322C7.71161 10.6657 8.08036 9.77543 8.08036 8.84717C8.08036 7.91891 7.71161 7.02867 7.05523 6.37229C6.39885 5.71592 5.50862 5.34717 4.58036 5.34717Z" fill="white"/>
</svg>
